<?xml version="1.0" encoding="utf-8"?>
<!-- Generator: Adobe Illustrator 21.1.0, SVG Export Plug-In . SVG Version: 6.00 Build 0)  -->
<svg version="1.1" id="Layer_1" xmlns="http://www.w3.org/2000/svg" xmlns:xlink="http://www.w3.org/1999/xlink" x="0px" y="0px"
	 width="93.4px" height="31px" viewBox="0 0 93.4 31" style="enable-background:new 0 0 93.4 31;" xml:space="preserve">
<style type="text/css">
	.st0{fill:#FFFFFF;}
	.st1{fill:url(#SVGID_1_);}
</style>
<g>
	<path class="st0" d="M20.8,31h-12c-1.1,0-2.2-0.2-3.3-0.7c-1.1-0.5-2-1.2-2.8-2c-0.8-0.9-1.5-1.9-1.9-3C0.2,24,0,22.8,0,21.5V9.5
		C0,8.2,0.2,7,0.7,5.8c0.5-1.2,1.1-2.2,1.9-3c0.8-0.9,1.7-1.5,2.8-2C6.5,0.2,7.6,0,8.8,0h12v4.2H9.3c-0.8,0-1.5,0.2-2.1,0.5
		C6.5,5,6,5.4,5.5,5.9C5.1,6.4,4.8,7,4.6,7.6C4.3,8.3,4.2,8.9,4.2,9.5v11.9c0,0.6,0.1,1.3,0.3,1.9c0.2,0.6,0.6,1.2,1,1.7
		c0.4,0.5,1,0.9,1.6,1.2c0.6,0.3,1.3,0.5,2.1,0.5h11.5V31z"/>
	<path class="st0" d="M41.3,31h-12c-1.1,0-2.2-0.2-3.3-0.7c-1.1-0.5-2-1.2-2.8-2c-0.8-0.9-1.5-1.9-1.9-3c-0.5-1.2-0.7-2.4-0.7-3.7V0
		h4.2v21.5c0,0.6,0.1,1.3,0.3,1.9c0.2,0.6,0.6,1.2,1,1.7c0.4,0.5,1,0.9,1.6,1.2c0.6,0.3,1.3,0.5,2.1,0.5h11.5V31z"/>
	<path class="st0" d="M52.4,27.3h13.1L57.4,5c-0.1-0.2-0.3-0.4-0.6-0.6c-0.3-0.2-0.6-0.3-0.9-0.3c-0.3,0-0.6,0.1-0.9,0.3
		c-0.3,0.2-0.5,0.4-0.5,0.6l-9.1,26h-4.2l9.8-27.6c0.1-0.4,0.4-0.9,0.6-1.3c0.3-0.4,0.6-0.8,1-1.1c0.4-0.3,0.9-0.6,1.5-0.8
		C54.6,0.1,55.2,0,56,0s1.3,0.1,1.9,0.3c0.5,0.2,1,0.4,1.4,0.8c0.4,0.3,0.8,0.7,1,1.1C60.6,2.6,60.8,3,61,3.4L70.8,31H52.4V27.3z"/>
	<path class="st0" d="M76.4,16.2h7c0.9,0,1.7-0.1,2.4-0.4c0.7-0.3,1.3-0.7,1.8-1.2c0.5-0.5,0.9-1.2,1.2-1.9c0.3-0.7,0.4-1.5,0.4-2.4
		c0-0.9-0.1-1.7-0.4-2.4c-0.3-0.7-0.7-1.4-1.2-1.9c-0.5-0.5-1.1-0.9-1.8-1.2c-0.7-0.3-1.5-0.4-2.4-0.4H71V0h12.4
		c1.4,0,2.7,0.3,3.9,0.8C88.5,1.3,89.6,2,90.5,3c0.9,0.9,1.6,2,2.1,3.3c0.5,1.2,0.8,2.6,0.8,4c0,1.4-0.3,2.8-0.8,4
		c-0.5,1.2-1.2,2.3-2.1,3.3c-0.9,0.9-2,1.7-3.2,2.2c-1.2,0.5-2.5,0.8-3.9,0.8h-2.8V31h-4.2V16.2z M71,10.8h12.4
		c0.1,0,0.2-0.1,0.3-0.2c0.1-0.1,0.1-0.3,0.1-0.4c0-0.1,0-0.3-0.1-0.4c-0.1-0.1-0.2-0.2-0.3-0.2H71V5.4h12.4c1.3,0,2.4,0.4,3.3,1.2
		c0.9,0.8,1.3,2,1.3,3.6c0,1.6-0.4,2.8-1.3,3.6c-0.9,0.8-2,1.2-3.3,1.2h-8.2V31H71V10.8z"/>
</g>
</svg>
